<?xml version="1.0" standalone="no"?>
<!DOCTYPE svg PUBLIC "-//W3C//DTD SVG 20010904//EN"
 "http://www.w3.org/TR/2001/REC-SVG-20010904/DTD/svg10.dtd">
<svg version="1.0" xmlns="http://www.w3.org/2000/svg"
 width="148.000000pt" height="288.000000pt" viewBox="0 0 148.000000 288.000000"
 preserveAspectRatio="xMidYMid meet">

<g transform="translate(0.000000,288.000000) scale(0.100000,-0.100000)"
fill="#000000" stroke="none">
<path d="M561 2723 c-11 -42 -181 -733 -181 -737 0 -1 36 15 80 36 113 55 188
72 300 72 113 -1 199 -21 288 -69 61 -32 64 -33 60 -12 -3 12 -42 185 -89 385
l-83 362 -183 0 -182 0 -10 -37z"/>
<path d="M623 2045 c-217 -47 -386 -205 -448 -419 -24 -83 -22 -232 4 -316 44
-140 159 -279 288 -348 396 -210 883 72 883 513 0 372 -355 651 -727 570z
m248 -29 c164 -35 322 -158 392 -307 102 -212 61 -447 -107 -615 -105 -105
-218 -158 -366 -170 -259 -21 -520 162 -584 411 -20 76 -20 204 -1 280 74 281
375 462 666 401z"/>
<path d="M947 1590 c-115 -104 -184 -160 -198 -160 -14 0 -62 38 -134 105
-106 99 -145 123 -145 91 0 -7 53 -62 118 -121 64 -60 123 -117 130 -127 17
-23 47 -23 64 0 7 11 93 92 191 181 98 90 176 168 174 174 -2 6 -8 12 -14 14
-6 2 -90 -68 -186 -157z"/>
<path d="M469 578 l86 -388 182 0 182 0 10 38 c5 20 30 118 56 217 62 241 125
486 131 506 3 11 -16 6 -73 -21 -103 -49 -191 -70 -295 -70 -120 0 -180 13
-278 62 l-86 43 85 -387z"/>
</g>
</svg>
